<?xml version="1.0" encoding="UTF-8" standalone="no"?>
<svg xmlns="http://www.w3.org/2000/svg" xmlns:xlink="http://www.w3.org/1999/xlink"
  xmlns:serif="http://www.serif.com/" width="100%" height="100%" viewBox="0 0 80 20" version="1.1"
  xml:space="preserve" style="fill-rule:evenodd;clip-rule:evenodd;"> <g transform="matrix(0.706574,-0.00058755,0.00058755,0.706574,-75.5896,-54.6532)"> <g transform="matrix(1,0,0,1,42.0012,-11.8323)"> <g id="t2" transform="matrix(1,0,1.0842e-19,1,30.4376,0.0769144)"> <path d="M139.456,111.867C138.936,111.347 138.901,110.682 140.117,106.279C140.738,104.033 141.127,102.111 141.127,101.992C141.127,101.874 141.342,101.706 140.596,101.686C140.32,101.679 140.321,101.524 140.31,101.372C140.292,101.137 140.752,100.743 141.241,100.598C142.138,100.331 142.466,99.764 142.625,99.061C143.024,97.295 144.395,97.574 144.395,99.056C144.395,99.844 144.506,100.432 144.679,100.464C145.921,100.701 145.21,101.103 144.351,101.631C143.507,102.15 143.093,104.727 142.495,107.479C142.3,108.378 142.379,108.543 142.5,108.962C142.547,109.124 142.804,109.102 143.036,109.102C143.622,109.102 143.63,109.136 143.217,109.934C142.694,110.946 141.102,112.206 140.347,112.206C140.043,112.206 139.642,112.054 139.456,111.867Z" style="fill:rgb(23,23,23);"></path> </g> <g id="e2" transform="matrix(1,0,1.0842e-19,1,3.03663e-20,0.28008)"> <path d="M163.187,111.985C162.843,111.931 162.239,111.505 161.846,111.037C160.419,109.341 161.063,105.422 163.162,103.038C164.537,101.476 166.082,100.635 167.576,100.635C168.777,100.635 169.138,100.925 169.422,102.114C169.836,103.847 168.014,106.032 165.769,106.496C164.709,106.715 164.655,106.779 164.572,107.913C164.469,109.323 164.836,109.443 165.961,108.365C167.204,107.174 167.824,108.192 166.921,109.94C166.21,111.314 164.585,112.204 163.187,111.985ZM166.509,104.296C167.155,103.95 167.998,102.426 167.758,102.038C167.447,101.535 166.833,101.755 166.095,102.632C164.928,104.019 165.174,105.01 166.509,104.296Z" style="fill:rgb(23,23,23);"></path> </g> <g id="r" transform="matrix(1,0,1.1151e-19,1.0285,-1.33948e-15,-2.53064)"> <path d="M155.075,111.378C154.985,111.233 155.232,109.636 155.622,107.828C156.222,105.053 156.343,103.663 156.3,103.254C156.281,103.073 156.072,103.175 155.91,103.175C155.216,103.175 155.42,102.736 156.616,101.656C157.831,100.558 157.888,101.307 158.763,101.854C159.21,102.133 159.87,101.603 160.317,101.325C161.32,100.698 162.176,100.543 162.342,101.411C162.54,102.446 162.334,102.748 160.692,103.822C159.338,104.708 159.267,104.824 158.287,107.747C157.732,109.404 157.114,110.958 156.912,111.201C156.511,111.684 155.334,111.797 155.075,111.378Z" style="fill:rgb(23,23,23);"></path> </g> <g id="O" transform="matrix(1,0,1.06496e-19,0.982253,0.0524904,2.64423)"> <path d="M146.799,111.201C143.895,109.167 145.452,102.587 149.302,100.623C150.854,99.831 151.98,99.908 152.944,100.871C155.084,103.012 153.779,108.932 150.712,110.999C149.584,111.759 147.732,111.855 146.799,111.201ZM150.448,108.704C151.346,107.039 151.894,104.626 151.769,102.893C151.686,101.751 151.605,101.623 150.971,101.623C149.531,101.623 147.232,107.889 147.968,109.807C148.086,110.115 148.404,110.239 148.923,110.179C149.526,110.11 149.869,109.778 150.448,108.704Z" style="fill:rgb(23,23,23);"></path> </g> <g id="t1" transform="matrix(1,0,1.0842e-19,1,1.00768e-20,0.0929421)"> <path d="M139.456,111.867C138.936,111.347 138.901,110.682 140.117,106.279C140.738,104.033 141.127,102.111 141.127,101.992C141.127,101.874 141.342,101.706 140.596,101.686C140.32,101.679 140.321,101.524 140.31,101.372C140.292,101.137 140.752,100.743 141.241,100.598C142.138,100.331 142.466,99.764 142.625,99.061C143.024,97.295 144.395,97.574 144.395,99.056C144.395,99.844 144.506,100.432 144.679,100.464C145.921,100.701 145.21,101.103 144.351,101.631C143.507,102.15 143.093,104.727 142.495,107.479C142.3,108.378 142.379,108.543 142.5,108.962C142.547,109.124 142.804,109.102 143.036,109.102C143.622,109.102 143.63,109.136 143.217,109.934C142.694,110.946 141.102,112.206 140.347,112.206C140.043,112.206 139.642,112.054 139.456,111.867Z" style="fill:rgb(23,23,23);"></path> </g> <g id="c" transform="matrix(1,0,1.0687e-19,0.985705,-1.33899e-15,2.01028)"> <path d="M130.689,109.09C130.402,105.237 134.411,100.014 137.191,100.395C138.263,100.542 138.62,101.525 136.802,101.909C136.038,102.07 134.332,103.979 134.011,106.883C133.833,108.49 134.15,108.935 134.504,109.007C134.818,109.071 135.159,108.623 135.625,108.285C136.464,107.675 137.106,107.983 137.109,108.838C137.111,109.216 136.744,109.735 136.364,110.128C135.396,111.133 134.863,111.411 133.233,111.897C132.412,112.142 130.805,110.65 130.689,109.09Z" style="fill:rgb(23,23,23);"></path> </g> <g id="e1" transform="matrix(1,0,1.0842e-19,1,-38.2605,0.315946)"> <path d="M163.187,111.985C162.843,111.931 162.239,111.505 161.846,111.037C160.419,109.341 161.063,105.422 163.162,103.038C164.537,101.476 166.082,100.635 167.576,100.635C168.777,100.635 169.138,100.925 169.422,102.114C169.836,103.847 168.014,106.032 165.769,106.496C164.709,106.715 164.655,106.779 164.572,107.913C164.469,109.323 164.836,109.443 165.961,108.365C167.204,107.174 167.824,108.192 166.921,109.94C166.21,111.314 164.585,112.204 163.187,111.985ZM166.509,104.296C167.155,103.95 167.998,102.426 167.758,102.038C167.447,101.535 166.833,101.755 166.095,102.632C164.928,104.019 165.174,105.01 166.509,104.296Z" style="fill:rgb(23,23,23);"></path> </g> <g id="R" transform="matrix(1,0,1.0842e-19,1,-4.94784e-20,-0.456358)"> <path d="M114.887,112.771L109.379,112.771L110.169,111.946C110.82,111.266 111.229,110.107 112.485,105.384C113.324,102.229 114.04,99.076 114.076,98.377L114.141,97.107L112.653,97.022C110.127,96.877 108.563,98.618 109.804,100.195C110.728,101.37 110.304,102.328 108.859,102.328C107.199,102.328 106.353,99.259 107.502,97.401C107.808,96.905 108.366,96.359 108.74,96.188C109.115,96.018 111.843,95.787 114.803,95.676C119.605,95.496 120.262,95.525 120.915,95.953C122.591,97.051 123.225,99.514 122.362,101.578C122.15,102.086 121.305,103.089 120.485,103.807L118.993,105.111L119.567,106.471C119.883,107.22 120.361,108.848 120.631,110.089C121.42,113.726 122.109,115.306 123.085,115.717C124.345,116.246 125.261,115.953 125.787,114.85C126.611,113.121 128.546,114.048 127.751,115.791C127.092,117.237 123.22,117.836 121.479,116.762L121.479,116.762C119.379,115.466 118.143,113.615 116.862,109.85C116.395,108.476 115.949,107.288 115.872,107.211C115.214,106.553 114.444,109.223 114.7,111.273L114.887,112.771ZM118.433,103.07C119.393,102.19 119.481,101.976 119.591,100.246C119.723,98.18 119.429,97.531 118.362,97.531C117.79,97.531 117.661,97.764 117.259,99.529C116.469,103.004 116.394,104.022 116.929,104.022C117.185,104.022 117.862,103.593 118.433,103.07Z" style="fill:rgb(23,23,23);"></path> </g> </g> <g transform="matrix(1,0,0,1,-14.8926,9.37947)"> <g id="n" transform="matrix(1,0,1.0842e-19,1,-3.20074e-20,-0.295216)"> <path d="M149.559,90.828C149.558,90.556 149.898,88.713 150.314,86.733C151.028,83.334 151.043,83.111 150.579,82.772C150.117,82.434 150.124,82.367 150.695,81.641C151.03,81.216 151.679,80.674 152.139,80.436C152.95,80.016 152.999,80.03 153.802,80.889L154.63,81.775L155.378,81.186C156.202,80.538 157.722,80.406 158.252,80.936C158.679,81.362 158.688,83.805 158.271,86.195C157.991,87.805 158.008,88.071 158.415,88.368C158.824,88.667 158.731,88.84 157.611,89.873C156.71,90.704 156.1,91.039 155.493,91.039C154.68,91.039 154.64,90.984 154.64,89.864C154.64,89.218 154.856,87.559 155.121,86.178C155.532,84.037 155.544,83.63 155.207,83.421C154.419,82.934 153.864,83.666 153.236,86.022C152.527,88.68 151.674,90.777 151.172,91.096C150.524,91.507 149.56,91.347 149.559,90.828L149.559,90.828Z" style="fill:rgb(23,23,23);"></path> </g> <g id="a" transform="matrix(1,0,1.0842e-19,1,0.724014,7.10543e-15)"> <path d="M140.21,90.571C139.52,89.736 139.557,85.946 140.399,84.129C141.712,81.299 143.331,80.33 146.314,80.276C147.133,80.207 148.025,80.276 148.159,80.383C148.348,80.536 148.381,80.831 148.378,81.086C148.426,81.587 148.131,83.225 147.723,84.726C147.162,86.783 147.063,87.505 147.32,87.664C147.799,87.96 147.451,89.126 146.571,90.171C145.745,91.153 144.683,91.311 143.867,90.572C143.387,90.138 143.315,90.138 142.835,90.572C142.17,91.174 140.708,91.173 140.21,90.571L140.21,90.571ZM144.672,85.816C145.84,82.884 145.956,81.897 145.147,81.781C144.355,81.668 143.471,82.806 142.927,84.638C142.478,86.15 142.375,87.711 142.702,88.039C143.24,88.577 143.845,87.893 144.672,85.816Z" style="fill:rgb(23,23,23);"></path> </g> <g id="C" transform="matrix(1,0,1.0842e-19,1,-7.4624e-20,-0.688285)"> <path d="M130.013,72.774C130.742,72.821 130.719,71.86 130.56,71.33C130.315,70.508 129.94,69.681 128.195,69.528C127.661,69.481 124.19,69.793 124.146,74.146C124.32,76.557 125.657,77.521 126.83,78.735C128.571,80.343 131.046,80.769 134.431,80.753C136.217,80.767 140.019,81.131 141.583,77.459C142.325,73.582 136.852,74.62 135.951,74.965C133.848,75.72 132.149,77.117 130.67,78.863C129.017,80.698 127.796,82.861 127.825,85.976C127.762,87.617 128.386,91.719 132.865,91.722C134.907,91.726 136.952,90.5 137.666,89.513C138.179,88.986 139.117,87.536 138.718,87.437C138.096,87.337 136.588,89.009 135.522,89.796C134.308,90.646 133.263,90.518 132.229,90.322C130.975,90.091 130.327,89.171 130.271,87.826C130.271,87.826 130.212,86.863 130.329,85.59C130.447,84.296 130.649,82.847 131.617,81.086C132.415,79.636 133.627,77.996 136.692,76.193C139.945,74.393 141.191,77.102 139.785,78.325C138.695,79.164 137.69,79.904 134.041,79.759C131.103,79.592 128.698,79.164 126.122,75.635C124.444,72.913 125.976,71.636 126.265,71.359C128.236,69.474 129.793,71.323 129.745,71.744C129.706,72.083 129.346,72.73 130.013,72.774Z" style="fill:rgb(23,23,23);fill-rule:nonzero;stroke:rgb(35,35,35);stroke-width:0.9px;"></path> </g> </g> </g> </svg> 